<svg fill="#000000" viewBox="0 0 24 24" id="clipboard" data-name="Flat Color" xmlns="http://www.w3.org/2000/svg" class="icon flat-color"><g id="SVGRepo_bgCarrier" stroke-width="0"></g><g id="SVGRepo_tracerCarrier" stroke-linecap="round" stroke-linejoin="round"></g><g id="SVGRepo_iconCarrier"><rect id="primary" x="4" y="4" width="16" height="18" rx="2" style="fill: #4b5156;"></rect><path id="secondary" d="M16,4V5a1,1,0,0,1-1,1H9A1,1,0,0,1,8,5V4a2,2,0,0,1,2-2h4A2,2,0,0,1,16,4Zm0,10H8a1,1,0,0,0,0,2h8a1,1,0,0,0,0-2Zm0-4H8a1,1,0,0,0,0,2h8a1,1,0,0,0,0-2Z" style="fill: #969696;"></path></g></svg>